<svg width="16" height="17" viewBox="0 0 16 17" fill="none" xmlns="http://www.w3.org/2000/svg">
<g clip-path="url(#clip0_1_1561)">
<path d="M8 0.5C12.4219 0.5 16 4.07812 16 8.5C16 12.9219 12.4219 16.5 8 16.5C3.57812 16.5 0 12.9219 0 8.5C0 4.07812 3.57812 0.5 8 0.5ZM8 15.5156C11.8594 15.5156 15 12.3594 15 8.5C15 4.64062 11.8594 1.5 8 1.5C4.14062 1.5 1 4.64062 1 8.5C1 12.3594 4.14062 15.5156 8 15.5156ZM7.45312 9H4.5C4.21875 9 4 8.78125 4 8.5C4 8.21875 4.21875 8 4.5 8H11.5C11.7812 8 12 8.21875 12 8.5C12 8.78125 11.7812 9 11.5 9H7.45312Z" fill="#032721"/>
</g>
<defs>
<clipPath id="clip0_1_1561">
<rect width="16" height="16" fill="white" transform="translate(0 0.5)"/>
</clipPath>
</defs>
</svg>
