<svg width="135" height="60" viewBox="0 0 135 60" fill="none" xmlns="http://www.w3.org/2000/svg">
<path fill-rule="evenodd" clip-rule="evenodd" d="M23.1735 40.5C24.8061 41.1328 26.8776 41.449 29.3878 41.449C32.857 41.449 35.5102 40.8266 37.3469 39.5816C39.2042 38.3164 40.1327 36.5816 40.1327 34.3775C40.1327 32.7245 39.7858 31.4287 39.0918 30.4898C38.4184 29.551 37.357 28.8469 35.9082 28.3775C34.4795 27.8878 32.6327 27.5204 30.3673 27.2755C29.0204 27.1122 27.9694 26.9592 27.2143 26.8163C26.4796 26.653 25.9694 26.4286 25.6837 26.1429C25.4874 25.9466 25.3586 25.6926 25.2971 25.3808L19.7808 22.3394C19.2058 23.2811 18.9184 24.3856 18.9184 25.6531C18.9184 27.102 19.2755 28.2755 19.9898 29.1735C20.7041 30.0714 21.7857 30.7653 23.2347 31.2551C24.6837 31.7449 26.5102 32.1223 28.7143 32.3878C29.9796 32.5307 30.9796 32.6838 31.7143 32.8469C32.449 32.9899 32.9694 33.2143 33.2755 33.5204C33.6021 33.806 33.7653 34.2551 33.7653 34.8673C33.7653 35.6225 33.4185 36.2042 32.7245 36.6122C32.0305 37.0203 31.0001 37.2245 29.6327 37.2245C28.0408 37.2245 26.8469 36.9285 26.051 36.3367C25.2551 35.745 24.8367 34.9592 24.7959 33.9796H18.3673C18.3878 35.4285 18.7857 36.7246 19.5612 37.8673C20.3571 38.9899 21.5612 39.8672 23.1735 40.5ZM20.766 21.1348C21.0384 20.8789 21.3409 20.6401 21.6735 20.4184C23.5306 19.1735 26.0714 18.551 29.2959 18.551C32.2142 18.551 34.5612 19.1428 36.3367 20.3265C38.1328 21.4898 39.1326 23.1632 39.3367 25.3469H33.0918C32.9899 24.4082 32.5714 23.7347 31.8367 23.3265C31.1226 22.9183 30.1939 22.7143 29.051 22.7143C27.847 22.7143 26.9082 22.9183 26.2347 23.3265C25.9905 23.4715 25.7919 23.6365 25.639 23.8215L20.766 21.1348Z" fill="white"/>
<path d="M41.5408 44.9082V23.2653H47.1735L47.3878 25.6531H47.5714C48.0612 24.8776 48.7959 24.2449 49.7755 23.7551C50.7551 23.2653 52.0102 23.0204 53.5408 23.0204C55.1532 23.0204 56.5613 23.3673 57.7653 24.0612C58.9693 24.7551 59.9082 25.7449 60.5816 27.0306C61.2551 28.2959 61.5918 29.8061 61.5918 31.5612C61.5918 33.296 61.2551 34.8061 60.5816 36.0918C59.9082 37.357 58.9592 38.347 57.7347 39.0612C56.5307 39.7552 55.1121 40.102 53.4796 40.102C52.2144 40.102 51.0713 39.8672 50.051 39.398C49.0307 38.9082 48.255 38.2448 47.7245 37.4082H47.5102V44.9082H41.5408ZM51.6735 35.6327C52.8572 35.6327 53.8062 35.2858 54.5204 34.5918C55.2551 33.8777 55.6224 32.8674 55.6224 31.5612C55.6224 30.2347 55.2551 29.2245 54.5204 28.5306C53.8062 27.8367 52.8572 27.4898 51.6735 27.4898C50.3672 27.4898 49.3469 27.8469 48.6122 28.5612C47.8776 29.2755 47.5102 30.1735 47.5102 31.2551V31.8061C47.5102 32.9082 47.8776 33.8265 48.6122 34.5612C49.3469 35.2754 50.3672 35.6327 51.6735 35.6327ZM62.2221 39.7959V17.4796H68.1915V39.7959H62.2221ZM69.5103 21.3673V17.4796H75.4797V21.3673H69.5103ZM69.5103 39.7959V23.2653H75.4797V39.7959H69.5103ZM85.9518 40.102C83.9314 40.102 82.1865 39.7448 80.7171 39.0306C79.2478 38.3164 78.1151 37.3163 77.3192 36.0306C76.5438 34.7244 76.1559 33.2042 76.1559 31.4694C76.1559 29.6735 76.5744 28.1428 77.411 26.8776C78.2477 25.6123 79.4213 24.6429 80.9314 23.9694C82.4415 23.2959 84.2069 22.9592 86.2273 22.9592C88.1048 22.9592 89.7377 23.2347 91.1253 23.7857C92.513 24.3367 93.6049 25.1122 94.4008 26.1122C95.1967 27.0918 95.6253 28.2347 95.6865 29.5408H89.7784C89.6354 28.9082 89.2375 28.4082 88.5845 28.0408C87.9517 27.6531 87.1558 27.4592 86.1967 27.4592C84.8905 27.4592 83.8803 27.8265 83.1661 28.5612C82.4519 29.2959 82.0947 30.2653 82.0947 31.4694C82.0947 32.8368 82.462 33.8672 83.1967 34.5612C83.9519 35.2347 84.9517 35.5714 86.1967 35.5714C87.0744 35.5714 87.8397 35.3979 88.4927 35.051C89.1661 34.6837 89.6048 34.1532 89.809 33.4592H95.7478C95.666 34.8266 95.1762 36.0101 94.2784 37.0102C93.3805 38.0103 92.2068 38.7756 90.758 39.3061C89.3091 39.8366 87.7068 40.102 85.9518 40.102ZM105.802 40.102C103.762 40.102 101.986 39.7653 100.476 39.0918C98.9657 38.4184 97.7924 37.4489 96.9554 36.1837C96.1393 34.9185 95.7309 33.398 95.7309 31.6224C95.7309 29.7857 96.1494 28.2245 96.986 26.9388C97.823 25.6531 98.9963 24.6735 100.506 24C102.017 23.3061 103.762 22.9592 105.741 22.9592C107.884 22.9592 109.701 23.347 111.19 24.1224C112.701 24.898 113.823 26.0204 114.557 27.4898C115.313 28.9592 115.609 30.7347 115.445 32.8163H101.67C101.711 33.8571 102.109 34.6736 102.864 35.2653C103.619 35.8368 104.649 36.1224 105.955 36.1224C106.935 36.1224 107.782 35.9694 108.496 35.6633C109.211 35.3571 109.67 34.9491 109.874 34.4388H115.476C115.333 35.5613 114.823 36.551 113.945 37.4082C113.088 38.2653 111.955 38.9287 110.547 39.398C109.139 39.8672 107.558 40.102 105.802 40.102ZM105.711 26.9388C104.588 26.9388 103.67 27.1735 102.955 27.6429C102.241 28.0918 101.792 28.7653 101.608 29.6633H109.568C109.466 28.8469 109.098 28.1939 108.466 27.7041C107.833 27.1939 106.915 26.9388 105.711 26.9388Z" fill="white"/>
<path d="M75.6123 17.2959H69.4898V21.5816H75.6123V17.2959Z" fill="#E4B91F"/>
</svg>
