<svg width="16" height="17" viewBox="0 0 16 17" fill="none" xmlns="http://www.w3.org/2000/svg">
<g clip-path="url(#clip0_1_1761)">
<path d="M8 0.5C3.58175 0.5 0 4.08175 0 8.5C0 12.9185 3.58175 16.5 8 16.5C12.4185 16.5 16 12.9185 16 8.5C16 4.08175 12.4185 0.5 8 0.5ZM8 15.5157C4.14025 15.5157 1 12.3597 1 8.49997C1 4.64022 4.14025 1.49997 8 1.49997C11.8597 1.49997 15 4.64023 15 8.49997C15 12.3597 11.8597 15.5157 8 15.5157ZM11.5 8H8.5V5C8.5 4.724 8.276 4.5 8 4.5C7.724 4.5 7.5 4.724 7.5 5V8H4.5C4.224 8 4 8.224 4 8.5C4 8.776 4.224 9 4.5 9H7.5V12C7.5 12.276 7.724 12.5 8 12.5C8.276 12.5 8.5 12.276 8.5 12V9H11.5C11.776 9 12 8.776 12 8.5C12 8.224 11.776 8 11.5 8Z" fill="#032721"/>
</g>
<defs>
<clipPath id="clip0_1_1761">
<rect width="16" height="16" fill="white" transform="translate(0 0.5)"/>
</clipPath>
</defs>
</svg>
