<svg width="16" height="16" viewBox="0 0 16 16" fill="none" xmlns="http://www.w3.org/2000/svg">
<path d="M4 1.3335L2 4.00016V13.3335C2 13.6871 2.14048 14.0263 2.39052 14.2763C2.64057 14.5264 2.97971 14.6668 3.33333 14.6668H12.6667C13.0203 14.6668 13.3594 14.5264 13.6095 14.2763C13.8595 14.0263 14 13.6871 14 13.3335V4.00016L12 1.3335H4Z" stroke="#16796F" stroke-width="0.8" stroke-linecap="round" stroke-linejoin="round"/>
<path d="M2 4H14" stroke="#16796F" stroke-width="0.8" stroke-linecap="round" stroke-linejoin="round"/>
<path d="M10.6667 6.6665C10.6667 7.37375 10.3857 8.05203 9.88561 8.55212C9.38552 9.05222 8.70724 9.33317 7.99999 9.33317C7.29275 9.33317 6.61447 9.05222 6.11438 8.55212C5.61428 8.05203 5.33333 7.37375 5.33333 6.6665" stroke="#16796F" stroke-width="0.8" stroke-linecap="round" stroke-linejoin="round"/>
</svg>
